<svg width="12" height="12" viewBox="0 0 12 12" fill="none" xmlns="http://www.w3.org/2000/svg">
<path d="M10.0155 4.76531L6.26552 8.51531C6.23069 8.55017 6.18934 8.57783 6.14381 8.59671C6.09829 8.61558 6.04949 8.62529 6.00021 8.62529C5.95093 8.62529 5.90213 8.61558 5.85661 8.59671C5.81108 8.57783 5.76972 8.55017 5.7349 8.51531L1.9849 4.76531C1.91453 4.69494 1.875 4.59951 1.875 4.49999C1.875 4.40048 1.91453 4.30505 1.9849 4.23468C2.05526 4.16432 2.1507 4.12479 2.25021 4.12479C2.34972 4.12479 2.44516 4.16432 2.51552 4.23468L6.00021 7.71984L9.4849 4.23468C9.51974 4.19984 9.5611 4.1722 9.60662 4.15335C9.65215 4.13449 9.70094 4.12479 9.75021 4.12479C9.79948 4.12479 9.84827 4.13449 9.8938 4.15335C9.93932 4.1722 9.98068 4.19984 10.0155 4.23468C10.0504 4.26952 10.078 4.31089 10.0969 4.35641C10.1157 4.40193 10.1254 4.45072 10.1254 4.49999C10.1254 4.54927 10.1157 4.59806 10.0969 4.64358C10.078 4.6891 10.0504 4.73047 10.0155 4.76531Z" fill="#BDC1CA"/>
</svg>
